<svg xmlns="http://www.w3.org/2000/svg" width="700pt" height="700pt" version="1.1" viewBox="0 0 700 700">
 <path d="m490.39 39.605c-12.555-1.6992-24.68 6.4922-36.059 12.102-12.973 6.3906-27.258 12.668-36.027 24.234-7.6914 10.141-11.039 23.578-12.031 36.297-1.9062 24.473 12.031 72.633 12.031 72.633s-32.273-2.5859-48.09 0c-37.512 6.1328-74.004 19.516-108.14 36.332-12.973 6.3945-23.566 16.895-36.059 24.199-15.496 9.0586-33.559 13.648-48.09 24.199-13.789 10.008-22.883 25.48-36.027 36.332-11.172 9.2227-36.059 24.199-36.059 24.199s50.281 20.504 72.086 36.332c9.1914 6.6719 14.293 18.41 24.062 24.199 25.133 14.898 55.055 21.773 84.117 24.234 6.6758 0.56641 13.367 0.69922 20.062 0.61328l28.539 65.078-11.824 11.859-0.003906 0.003906c-1.6992 1.625-2.668 3.8711-2.6953 6.2227-0.023438 2.3555 0.89844 4.6172 2.5625 6.2812 1.6641 1.6641 3.9297 2.5898 6.2812 2.5625 2.3516-0.023437 4.5977-0.99609 6.2266-2.6953l6.8359-6.8359 19.961 19.961h-0.003906c1.6328 1.6914 3.8711 2.6523 6.2188 2.6719 2.3477 0.023437 4.6055-0.90234 6.2656-2.5586 1.6602-1.6602 2.5859-3.918 2.5625-6.2656-0.019531-2.3477-0.98047-4.5898-2.6719-6.2188l-11.246-11.246h44.402c2.3398 0.03125 4.5977-0.875 6.2656-2.5195s2.6055-3.8906 2.6055-6.2305c0-2.3438-0.9375-4.5859-2.6055-6.2305-1.668-1.6445-3.9258-2.5508-6.2656-2.5195h-55.406l-27.41-62.48c22.223-1.8945 44.375-6.0859 66.137-10.871l17.398 29.805-11.043 11.043c-1.6992 1.625-2.668 3.8711-2.6953 6.2227-0.023438 2.3555 0.89844 4.6172 2.5625 6.2812 1.6641 1.6641 3.9297 2.5898 6.2812 2.5625 2.3516-0.023437 4.5977-0.99609 6.2266-2.6953l6.8359-6.8359 19.961 19.961h-0.003906c1.6328 1.6914 3.8711 2.6523 6.2188 2.6719 2.3477 0.023437 4.6055-0.90234 6.2656-2.5586 1.6602-1.6602 2.5859-3.918 2.5625-6.2656-0.019531-2.3477-0.98047-4.5898-2.6719-6.2188l-11.246-11.246h44.402c2.3398 0.03125 4.5977-0.875 6.2656-2.5195s2.6055-3.8906 2.6055-6.2305c0-2.3438-0.9375-4.5859-2.6055-6.2305-1.668-1.6445-3.9258-2.5508-6.2656-2.5195h-56.09l-17.191-29.461c19.824-5.0977 39.375-11.652 57.695-20.68 25.949-12.785 49.777-29.984 72.121-48.434 8.7617-7.2383 17.402-14.941 24.027-24.199 5.2383-7.3203 9.9414-15.418 11.996-24.199 3.6797-15.707 6.1328-33.52 0-48.434-8.6719-21.09-30.531-33.961-48.059-48.434-11.172-9.2227-29.246-11.375-36.059-24.199-3.7812-7.1172 0-24.199 0-24.199s4.0195 0.99219 6.9062 1.7773c1.1719 0.39453 9.8945 3.5 32.059 7.4844 11.426 2.0547 23.5 3.4688 34.488 2.8359 10.988-0.62891 21.832-3.0703 28.539-11.93 2.832-3.7383 2.2148-9.043-1.3984-12.031l-56.875-52.191c-2.3359-2.1445-5.4023-6.0547-7.6562-8.5781-9.5586-10.906-21.742-22.305-36.059-24.234zm-17.055 43.512c2.3203 0 4.543 0.92187 6.1836 2.5625 1.6445 1.6406 2.5664 3.8672 2.5664 6.1875 0 2.3203-0.92188 4.5469-2.5664 6.1875-1.6406 1.6406-3.8633 2.5625-6.1836 2.5625-2.3242 0-4.5469-0.92188-6.1875-2.5625-1.6406-1.6406-2.5625-3.8672-2.5625-6.1875 0-2.3203 0.92188-4.5469 2.5625-6.1875 1.6406-1.6406 3.8633-2.5625 6.1875-2.5625zm60.668 12.852 38.348 34.113c-17.211 3.7031-36.062-1.1367-54.996-4.2031 3.9844-11.688 10.484-20.754 16.645-29.906z" fill-rule="evenodd"/>
</svg>